<svg width="433" height="173" viewBox="0 0 433 173" fill="none" xmlns="http://www.w3.org/2000/svg">
<circle cx="65" cy="65" r="65" fill="#FF5900"/>
<circle cx="160" cy="65" r="65" fill="#FF5900"/>
<circle cx="254" cy="65" r="65" fill="#FF5900"/>
<circle cx="341" cy="65" r="65" fill="#FF5900"/>
<path d="M44.4 53.4H35.6V68H28.05V33.1H35.6V47.25H44.4V33.1H51.95V68H44.4V53.4ZM69.9805 68.6C65.3138 68.6 61.8638 67.0167 59.6305 63.85C57.4305 60.6833 56.3305 56.25 56.3305 50.55C56.3305 44.85 57.4305 40.4167 59.6305 37.25C61.8638 34.0833 65.3138 32.5 69.9805 32.5C74.6471 32.5 78.0805 34.0833 80.2805 37.25C82.5138 40.4167 83.6305 44.85 83.6305 50.55C83.6305 56.25 82.5138 60.6833 80.2805 63.85C78.0805 67.0167 74.6471 68.6 69.9805 68.6ZM69.9805 62.55C72.1138 62.55 73.5805 61.7667 74.3805 60.2C75.2138 58.6 75.6305 56.3833 75.6305 53.55V47.5C75.6305 44.7 75.2138 42.5167 74.3805 40.95C73.5805 39.35 72.1138 38.55 69.9805 38.55C67.8471 38.55 66.3638 39.35 65.5305 40.95C64.7305 42.5167 64.3305 44.7 64.3305 47.5V53.6C64.3305 56.4 64.7305 58.6 65.5305 60.2C66.3638 61.7667 67.8471 62.55 69.9805 62.55ZM64.4805 29.95C62.9805 29.95 61.9305 29.65 61.3305 29.05C60.7638 28.4167 60.4805 27.6667 60.4805 26.8V25.5C60.4805 24.6333 60.7638 23.9 61.3305 23.3C61.9305 22.7 62.9805 22.4 64.4805 22.4C65.9805 22.4 67.0305 22.7 67.6305 23.3C68.2305 23.9 68.5305 24.6333 68.5305 25.5V26.8C68.5305 27.6667 68.2305 28.4167 67.6305 29.05C67.0305 29.65 65.9805 29.95 64.4805 29.95ZM75.4805 29.95C73.9805 29.95 72.9305 29.65 72.3305 29.05C71.7305 28.4167 71.4305 27.6667 71.4305 26.8V25.5C71.4305 24.6333 71.7305 23.9 72.3305 23.3C72.9305 22.7 73.9805 22.4 75.4805 22.4C76.9805 22.4 78.0138 22.7 78.5805 23.3C79.1805 23.9 79.4805 24.6333 79.4805 25.5V26.8C79.4805 27.6667 79.1805 28.4167 78.5805 29.05C78.0138 29.65 76.9805 29.95 75.4805 29.95ZM110.511 33.1V58.25C110.511 59.8167 110.228 61.25 109.661 62.55C109.128 63.8167 108.344 64.9 107.311 65.8C106.311 66.7 105.094 67.4 103.661 67.9C102.228 68.3667 100.628 68.6 98.8609 68.6C95.2943 68.6 92.5276 67.7167 90.5609 65.95C88.6276 64.15 87.3943 61.8 86.8609 58.9L93.9609 57.45C94.2276 58.95 94.7276 60.1667 95.4609 61.1C96.2276 62.0333 97.3609 62.5 98.8609 62.5C100.128 62.5 101.111 62.1 101.811 61.3C102.544 60.4667 102.911 59.2 102.911 57.5V39.25H91.4109V33.1H110.511ZM129.391 68.6C126.458 68.6 123.908 68.1167 121.741 67.15C119.575 66.1833 117.825 64.8667 116.491 63.2L120.841 58.4C122.108 59.8 123.491 60.8333 124.991 61.5C126.525 62.1667 128.075 62.5 129.641 62.5C131.441 62.5 132.808 62.1 133.741 61.3C134.675 60.5 135.141 59.35 135.141 57.85C135.141 56.6167 134.775 55.6833 134.041 55.05C133.341 54.4167 132.141 53.9667 130.441 53.7L126.791 53.1C123.658 52.5667 121.391 51.4167 119.991 49.65C118.591 47.85 117.891 45.6667 117.891 43.1C117.891 39.7333 118.991 37.1333 121.191 35.3C123.391 33.4333 126.475 32.5 130.441 32.5C133.141 32.5 135.491 32.9167 137.491 33.75C139.491 34.5833 141.108 35.7167 142.341 37.15L138.091 41.9C137.158 40.8667 136.058 40.0667 134.791 39.5C133.525 38.9 132.091 38.6 130.491 38.6C127.125 38.6 125.441 39.9833 125.441 42.75C125.441 43.95 125.808 44.85 126.541 45.45C127.308 46.05 128.541 46.5 130.241 46.8L133.891 47.45C136.725 47.95 138.908 49.0167 140.441 50.65C141.975 52.2833 142.741 54.4833 142.741 57.25C142.741 58.8833 142.458 60.4 141.891 61.8C141.325 63.1667 140.475 64.3667 139.341 65.4C138.208 66.4 136.808 67.1833 135.141 67.75C133.508 68.3167 131.591 68.6 129.391 68.6ZM158.922 53.45L155.822 57.8V68H148.322V33.1H155.822V47.7H156.222L160.022 41.9L166.172 33.1H174.572L164.122 47.85L175.072 68H166.622L158.922 53.45ZM189.902 68.6C185.236 68.6 181.786 67.0167 179.552 63.85C177.352 60.6833 176.252 56.25 176.252 50.55C176.252 44.85 177.352 40.4167 179.552 37.25C181.786 34.0833 185.236 32.5 189.902 32.5C194.569 32.5 198.002 34.0833 200.202 37.25C202.436 40.4167 203.552 44.85 203.552 50.55C203.552 56.25 202.436 60.6833 200.202 63.85C198.002 67.0167 194.569 68.6 189.902 68.6ZM189.902 62.55C192.036 62.55 193.502 61.7667 194.302 60.2C195.136 58.6 195.552 56.3833 195.552 53.55V47.5C195.552 44.7 195.136 42.5167 194.302 40.95C193.502 39.35 192.036 38.55 189.902 38.55C187.769 38.55 186.286 39.35 185.452 40.95C184.652 42.5167 184.252 44.7 184.252 47.5V53.6C184.252 56.4 184.652 58.6 185.452 60.2C186.286 61.7667 187.769 62.55 189.902 62.55ZM209.483 68V33.1H217.033V61.85H232.033V68H209.483ZM238.863 68V33.1H261.163V39.25H246.363V47.25H260.663V53.4H246.363V61.85H261.163V68H238.863ZM274.844 44.8H274.294V68H267.894V33.1H276.894L284.844 56.3H285.394V33.1H291.794V68H282.794L274.844 44.8ZM309.824 60.2C308.424 60.2 307.224 60.0333 306.224 59.7C305.258 59.3667 304.458 58.9167 303.824 58.35C303.224 57.75 302.791 57.05 302.524 56.25C302.258 55.45 302.124 54.5833 302.124 53.65V51.95C302.124 51.0167 302.258 50.15 302.524 49.35C302.791 48.55 303.224 47.8667 303.824 47.3C304.458 46.7 305.258 46.2333 306.224 45.9C307.224 45.5667 308.424 45.4 309.824 45.4C311.224 45.4 312.408 45.5667 313.374 45.9C314.374 46.2333 315.174 46.7 315.774 47.3C316.408 47.8667 316.858 48.55 317.124 49.35C317.391 50.15 317.524 51.0167 317.524 51.95V53.65C317.524 54.5833 317.391 55.45 317.124 56.25C316.858 57.05 316.408 57.75 315.774 58.35C315.174 58.9167 314.374 59.3667 313.374 59.7C312.408 60.0333 311.224 60.2 309.824 60.2ZM328.005 33.1H339.255C343.955 33.1 347.438 34.6 349.705 37.6C351.971 40.6 353.105 44.9167 353.105 50.55C353.105 56.1833 351.971 60.5 349.705 63.5C347.438 66.5 343.955 68 339.255 68H328.005V33.1ZM338.755 62.1C340.988 62.1 342.621 61.3833 343.655 59.95C344.688 58.5167 345.205 56.4333 345.205 53.7V47.35C345.205 44.65 344.688 42.5833 343.655 41.15C342.621 39.7167 340.988 39 338.755 39H335.405V62.1H338.755ZM368.785 53.45L365.685 57.8V68H358.185V33.1H365.685V47.7H366.085L369.885 41.9L376.035 33.1H384.435L373.985 47.85L384.935 68H376.485L368.785 53.45Z" fill="white"/>
<line x1="271" y1="81" x2="386" y2="81" stroke="white" stroke-width="2"/>
<path d="M140.832 75.926H143.757C144.979 75.926 145.885 76.316 146.474 77.096C147.063 77.876 147.358 78.9983 147.358 80.463C147.358 81.9277 147.063 83.05 146.474 83.83C145.885 84.61 144.979 85 143.757 85H140.832V75.926ZM143.627 83.466C144.208 83.466 144.632 83.2797 144.901 82.907C145.17 82.5343 145.304 81.9927 145.304 81.282V79.631C145.304 78.929 145.17 78.3917 144.901 78.019C144.632 77.6463 144.208 77.46 143.627 77.46H142.756V83.466H143.627ZM148.77 85V83.557H150.72V77.369H148.77V75.926H154.62V77.369H152.67V83.557H154.62V85H148.77ZM160.465 77.525V85H158.515V77.525H155.902V75.926H163.078V77.525H160.465ZM172.376 85V75.926H174.339V83.401H178.239V85H172.376ZM179.95 85V83.557H181.9V77.369H179.95V75.926H185.8V77.369H183.85V83.557H185.8V85H179.95ZM189.292 85L186.887 75.926H189.058L190.124 80.541L190.657 83.154H190.761L191.307 80.541L192.386 75.926H194.453L192.048 85H189.292ZM198.321 85.156C197.559 85.156 196.896 85.0303 196.332 84.779C195.769 84.5277 195.314 84.1853 194.967 83.752L196.098 82.504C196.428 82.868 196.787 83.1367 197.177 83.31C197.576 83.4833 197.979 83.57 198.386 83.57C198.854 83.57 199.21 83.466 199.452 83.258C199.695 83.05 199.816 82.751 199.816 82.361C199.816 82.0403 199.721 81.7977 199.53 81.633C199.348 81.4683 199.036 81.3513 198.594 81.282L197.645 81.126C196.831 80.9873 196.241 80.6883 195.877 80.229C195.513 79.761 195.331 79.1933 195.331 78.526C195.331 77.6507 195.617 76.9747 196.189 76.498C196.761 76.0127 197.563 75.77 198.594 75.77C199.296 75.77 199.907 75.8783 200.427 76.095C200.947 76.3117 201.368 76.6063 201.688 76.979L200.583 78.214C200.341 77.9453 200.055 77.7373 199.725 77.59C199.396 77.434 199.023 77.356 198.607 77.356C197.732 77.356 197.294 77.7157 197.294 78.435C197.294 78.747 197.39 78.981 197.58 79.137C197.78 79.293 198.1 79.41 198.542 79.488L199.491 79.657C200.228 79.787 200.796 80.0643 201.194 80.489C201.593 80.9137 201.792 81.4857 201.792 82.205C201.792 82.6297 201.719 83.024 201.571 83.388C201.424 83.7433 201.203 84.0553 200.908 84.324C200.614 84.584 200.25 84.7877 199.816 84.935C199.392 85.0823 198.893 85.156 198.321 85.156ZM211.194 85V75.926H216.992V77.525H213.144V79.605H216.862V81.204H213.144V83.401H216.992V85H211.194ZM220.471 85L218.066 75.926H220.237L221.303 80.541L221.836 83.154H221.94L222.486 80.541L223.565 75.926H225.632L223.227 85H220.471ZM226.784 85V75.926H232.582V77.525H228.734V79.605H232.452V81.204H228.734V83.401H232.582V85H226.784ZM236.139 78.968H235.996V85H234.332V75.926H236.672L238.739 81.958H238.882V75.926H240.546V85H238.206L236.139 78.968ZM246.209 77.525V85H244.259V77.525H241.646V75.926H248.822V77.525H246.209ZM252.054 85V81.789L249.181 75.926H251.352L252.314 78.032L253.016 79.813H253.12L253.822 78.032L254.784 75.926H256.877L254.004 81.789V85H252.054ZM259.836 85H257.912V75.926H261.422C261.864 75.926 262.258 75.9953 262.605 76.134C262.951 76.264 263.242 76.4547 263.476 76.706C263.718 76.9573 263.9 77.2607 264.022 77.616C264.143 77.9713 264.204 78.37 264.204 78.812C264.204 79.4533 264.065 80.0037 263.788 80.463C263.51 80.9223 263.116 81.2257 262.605 81.373L264.386 85H262.254L260.733 81.633H259.836V85ZM260.954 80.125C261.413 80.125 261.729 80.0383 261.903 79.865C262.085 79.6917 262.176 79.4057 262.176 79.007V78.617C262.176 78.2183 262.085 77.9323 261.903 77.759C261.729 77.5857 261.413 77.499 260.954 77.499H259.836V80.125H260.954Z" fill="white"/>
<line x1="28" y1="81" x2="133" y2="81" stroke="white" stroke-width="2"/>
</svg>
